#!OML:ASF F:\VICON\USERDATA\INSTALL\rory3\rory3.ASF
:FULLY-SPECIFIED
:DEGREES
1
root -1.695449999999998 17.1022 -30.087400000000073 3.202350000000002 -5.298860000000007 -3.8874300000000055
lfemur -13.855299999999993 8.654599999999993 -13.735499999999988
ltibia 102.10899999999994
lfoot 21.168300000000016 -15.717399999999992
ltoes 12.749000000000027
rfemur -30.298599999999972 7.29712 30.843299999999996
rtibia 56.899999999999984
rfoot -18.780000000000026 -8.90625
rtoes -3.7099700000000064
lowerback 1.0 -0.46364799999999873 1.9990400000000008
upperback 1.09018 0.01100839999999792 2.6859299999999977
thorax -8.5385 -0.01846600000000087 1.7598299999999971
lowerneck -18.3079 -2.4124800000000013 -2.308190000000001
upperneck 15.254700000000003 -2.9039599999999957 1.2157200000000015
head 7.768840000000001 -1.396659999999999 0.43321100000000057
lclavicle -1.0535599999999984e-14 -1.232459999999998e-14
lhumerus -45.78950000000001 -10.261400000000005 96.1083
lradius 86.5107
lwrist 33.9425
lhand -29.9034 0.3075739999999958
lfingers 7.12502
lthumb -3.22417 30.2629
rclavicle -1.0535599999999984e-14 -1.232459999999998e-14
rhumerus -48.713400000000014 8.724100000000007 -96.1485
rradius 96.89729999999999
rwrist -18.0501
rhand -19.9359 1.0
rfingers 7.12502
rthumb 6.401740000000002 10.561499999999999
2
root -1.707170000000001 17.026 -29.631999999999962 3.5255199999999998 -4.66269 -4.440879999999993
lfemur -17.598399999999994 9.221550000000002 -12.286999999999992
ltibia 105.32000000000006
lfoot 20.205199999999984 -15.853300000000008
ltoes 11.414600000000036
rfemur -28.966400000000014 7.385619999999994 31.6507
rtibia 57.392200000000024
rfoot -20.45169999999999 -10.3576
rtoes -5.094249999999994
lowerback 1.0 -0.7737930000000033 1.7689499999999998
upperback 0.24573400000000162 -0.31895599999999935 3.5424700000000056
thorax -9.622890000000002 -0.14182999999999935 2.932950000000003
lowerneck -16.087999999999994 -2.155249999999999 -3.3887599999999996
upperneck 14.936700000000002 -2.3572099999999976 1.2719200000000024
head 7.28749 -1.2048000000000003 0.712076
lclavicle -6.858069999999987e-15 -3.578120000000005e-15
lhumerus -47.7466 -8.118890000000002 96.86970000000001
lradius 84.8985
lwrist 33.3079
lhand -30.862800000000004 -2.0121600000000086
lfingers 7.12502
lthumb -4.150640000000001 27.927200000000006
rclavicle -6.858069999999987e-15 -3.578120000000005e-15
rhumerus -48.32899999999999 11.254 -96.0977
rradius 97.6094
rwrist -18.236500000000003
rhand -19.7133 1.0
rfingers 7.12502
rthumb 6.616579999999999 10.6307
3
root -1.7093600000000018 16.9518 -29.17500000000009 3.641000000000001 -4.185069999999998 -4.226099999999991
lfemur -21.0463 9.755300000000014 -12.062400000000018
ltibia 107.89499999999998
lfoot 19.21519999999998 -16.003100000000007
ltoes 6.548689999999997
rfemur -27.55600000000002 7.348429999999999 31.6339
rtibia 57.7902
rfoot -21.806200000000008 -11.850200000000003
rtoes -7.48752999999999
lowerback 1.0 -0.667138000000002 1.6118799999999998
upperback 0.07106389999999935 -0.198963000000004 3.5080199999999944
thorax -9.9077 -0.07543759999999788 2.963299999999995
lowerneck -16.242600000000003 -2.286649999999999 -3.3857300000000006
upperneck 15.1799 -2.5470599999999974 1.3475500000000027
head 7.39939 -1.28836 0.7133409999999999
lclavicle 5.963540000000008e-16 1.5505199999999992e-14
lhumerus -48.6752 -7.9358499999999985 96.9739
lradius 83.74389999999997
lwrist 33.1142
lhand -30.2603 -6.547380000000015
lfingers 7.12502
lthumb -3.568790000000001 23.402500000000018
rclavicle 5.963540000000008e-16 1.5505199999999992e-14
rhumerus -45.967999999999996 12.2325 -96.1519
rradius 98.09660000000001
rwrist -18.556799999999996
rhand -19.5943 1.0
rfingers 7.12502
rthumb 6.731490000000001 10.622
4
root -1.7082899999999985 16.883599999999998 -28.72680000000002 3.74913 -4.2915499999999955 -3.9413499999999955
lfemur -24.2353 10.795199999999998 -12.127500000000017
ltibia 110.06700000000002
lfoot 17.51409999999999 -15.972100000000003
ltoes 1.2431200000000224
rfemur -25.85630000000001 7.726710000000002 31.447699999999994
rtibia 57.93939999999999
rfoot -22.78380000000001 -12.751500000000004
rtoes -8.467970000000012
lowerback 1.0 -0.26901000000000264 1.6346600000000002
upperback 0.27335100000000107 0.27940699999999863 3.086950000000001
thorax -9.643710000000002 0.13773100000000038 2.3580900000000047
lowerneck -17.085999999999995 -2.534760000000002 -2.7946300000000015
upperneck 15.135400000000002 -3.031160000000003 1.503790000000002
head 7.53432 -1.4645600000000012 0.605505
lclavicle -1.5902799999999995e-14 -2.146870000000002e-14
lhumerus -49.2658 -8.697110000000002 96.6594
lradius 83.3268
lwrist 32.9392
lhand -29.5148 -9.442189999999997
lfingers 7.12502
lthumb -2.848849999999999 20.518500000000035
rclavicle -1.5902799999999995e-14 -2.146870000000002e-14
rhumerus -43.5829 12.4834 -96.4557
rradius 99.2337
rwrist -18.4611
rhand -20.1548 1.0
rfingers 7.12502
rthumb 6.190329999999998 9.833540000000001
